Patient4_TMGait_0pt2_01_right_02_EMG.mot
version=1
nRows=33
nColumns=33
inDegrees=no
endheader
time	1LAddLong	2LGlutMax	3LGlutMed	4LIliopsoas	5LSemiMemb	6LBicFemLong	7LRecFem	8LVastMed	9LVastLat	10LGasMed	11LTibAnt	12lTibPost	13LPeroneusLong	14LSol	15LExtDigLong	16LFlexDigLong	17RAddLong	18RGlutMax	19RGlutMed	20RIliopsoas	21RSemiMemb	22RBicFemLong	23RRecFem	24RVastMed	25RVastLat	26RGasMed	27RTibAnt	28RTibPost	29RPeroneusLong	30RSol	31RExtDigLong	32RFlexDigLong
2.26	-0.028229	0.058441	-0.04715	0.006866	-0.021057	0.059967	-0.059509	0.000458	0.027466	0.020294	0.031128	-0.013733	0.18494	0.12436	0.012512	0.005951	-0.032959	0.38711	0.13275	-0.027771	0.034943	-0.054474	0.16678	0.10956	0.026093	-0.009155	0.94528	-0.010223	0.037079	0.05249	-0.003357	-0.012512
2.261	-0.013275	0.078583	-0.014038	0.018005	-0.046997	0.078278	0.014648	0.007782	0.018158	0.031128	0.066528	-0.011902	-0.14282	0.11231	0.020294	0.004272	-0.041351	0.30106	0.094299	0.030212	0.03006	-0.049591	0.18784	0.11993	0.003662	-0.012054	0.098114	-0.007172	0.005493	0.036163	-0.00061	-0.014954
2.262	-0.012665	0.065765	0.10391	0.009155	0.001221	0.072632	0.07843	0.005188	-0.023804	0.013123	0.10162	-0.018158	-0.015717	0.2507	-0.016785	0.007324	-0.039368	0.28595	0.057373	0.08194	0.023346	-0.055389	0.14374	0.089722	0.022278	-0.009308	-0.40924	-0.006561	-0.021973	0.032501	-0.000305	-0.021515
2.263	-0.012817	0.029144	0.093536	-0.011597	0.027161	0.14725	0.095367	0.006104	-0.028992	0.012207	0.051117	-0.016937	-0.87341	0.11856	-0.042114	0.003052	-0.028687	0.26291	0.015106	0.19684	0.027161	-0.047913	0.14297	0.081024	0.00061	-0.006714	-0.23895	-0.006866	-0.006866	0.047302	-0.001068	-0.025482
2.264	-0.015564	0.067749	0.065155	0	0.037842	-0.027466	0.058899	0.003052	0.01236	0.023499	0.008087	-0.016632	-0.53421	-0.090027	-0.091553	0.003967	-0.020447	0.21927	-0.054321	0.14175	0.030823	-0.032501	0.13886	0.058594	0.024414	-0.005646	-0.03891	-0.010681	0.009155	0.1297	-0.004425	-0.022278
2.265	0.012817	0.038757	0.03891	-0.004425	0.033875	-0.05127	0.019226	-0.005188	0.034332	0.03891	0.006409	-0.015717	0.51727	-0.049438	0.005951	-0.000153	-0.001678	0.16907	0.18219	0.13565	0.037994	-0.042419	0.16525	0.048981	0.023804	-0.014954	0.022278	-0.009003	-0.006561	0.26825	-0.006561	-0.016327
2.266	0.012817	0.06424	0.052032	0.016479	0.049286	0.23514	0.010223	-0.007324	0.048218	0.052185	-0.005646	-0.019684	0.86227	-0.001831	0.067749	0.020599	0.01297	0.21149	0.053864	0.18738	0.038757	-0.040436	0.092468	0.088654	0.05188	-0.005188	0.020905	-0.008087	0.091553	0.13641	-0.003052	-0.016785
2.267	0.024719	0.09552	0.076904	0.011902	0.057983	0.37857	-0.000153	-0.010834	0.045929	0.15472	0.012207	-0.009003	0.55893	0.069885	0.12131	0.010986	0.001678	0.2095	-0.025787	0.063171	0.02121	-0.040131	0.088501	0.077972	0.044403	-0.003204	-0.053864	-0.00824	0.099335	0.063934	-0.00412	-0.007935
2.268	0.029602	0.066071	0.12344	-0.002289	0.029602	0.058746	-0.04837	-0.003967	0.016022	0.12482	-0.006866	-0.022125	0.3804	0.30533	0.20187	0.024719	-0.045166	0.17929	-0.018768	0.023041	0.01358	-0.043335	0.11948	0.097351	0.034485	-0.002136	-0.21088	-0.010681	0.080414	0.079803	-0.004578	-0.019836
2.269	0.034637	0.079803	0.069275	-0.00824	0.037537	-0.19684	-0.068359	-0.007629	0.03418	0.15686	-0.027008	-0.015564	-0.38055	0.042877	-0.10223	0.018158	-0.039063	0.19852	-0.12528	0.043182	0.003662	-0.06073	0.089722	0.12131	0.033722	-0.009308	-0.22553	-0.005646	0.06134	0.052032	-0.004883	-0.005798
2.27	0.036469	0.079956	0.002289	0.003967	0.013275	0.079498	-0.089111	-0.004883	0.082397	0.17975	-0.072632	-0.017853	-0.71365	-0.10803	-0.20203	0.005493	0.004578	0.17563	-0.078278	-0.072021	-0.011444	-0.037231	0.062714	0.091553	0.038147	-0.006714	-0.030975	-0.004578	-0.024261	0.020752	-0.003967	-0.01358
2.271	0.035858	0.072784	-0.058136	0.016479	0.006561	0.032806	-0.071869	0.001831	0.13825	-0.00824	-0.032196	-0.022888	-0.4657	0.019226	0.021057	0.005188	0.021515	0.1503	-0.059357	-0.12253	-0.015717	-0.057678	0.04837	0.030975	0.028534	-0.00885	0.11505	-0.005188	-0.072937	0.064087	-0.003052	-0.013885
2.272	0.019226	0.06012	0.000305	0.018005	-0.016327	-0.23712	-0.040283	-0.00351	0.14404	-0.18921	0.003967	-0.024261	-0.54596	-0.13229	0.023804	0.005341	0.012512	0.14771	-0.075989	-0.16098	-0.015869	-0.067139	0.076294	0.013123	0.031891	-0.009003	0.27329	-0.008392	-0.086517	0.025787	0.000763	-0.016937
2.273	0.014801	0.043335	-0.090179	0.005493	0.005341	-0.084839	-0.017395	-0.004578	0.16098	-0.026855	-0.000305	-0.020447	-0.033417	-0.2359	0.022278	0.012207	0.001984	0.13504	0.1561	-0.21484	-0.019226	-0.071106	0.063477	0.025787	0.010681	-0.012665	0.29846	-0.005341	-0.080719	-0.001068	0	-0.02121
2.274	0.014648	0.045013	-0.13489	-0.005646	-0.00885	0.10971	-0.033264	0.000153	0.20218	0.15289	0.011597	-0.009155	0.07019	-0.35828	0.11749	0.009766	-0.012817	0.12665	0.41718	-0.22171	-0.02594	-0.075378	0.058289	0.033417	0.039368	-0.006714	0.27664	-0.004883	-0.11505	-0.036469	0.000153	-0.019226
2.275	0.020447	0.068207	-0.10254	-0.023956	-0.010376	0.16419	-0.021362	0.00473	0.041962	0.17609	0.010529	-0.02121	-0.001526	-0.22934	0.14374	0.009918	-0.021515	0.095062	0.1297	-0.21561	-0.024567	-0.077209	0.10132	0.03418	0.030975	-0.001678	-0.067902	-0.00412	-0.081787	-0.063934	-0.008698	-0.014954
2.276	0.013733	0.047607	-0.00412	-0.002747	-0.014648	0.24811	0.050659	0.004578	-0.1947	0.14496	-0.006561	-0.011292	-0.010071	-0.061951	0.098572	0.013275	-0.035095	0.046539	-0.098267	-0.15564	-0.032959	-0.07782	0.099945	0.013123	0.006104	-0.011597	-0.24674	-0.005798	-0.062103	-0.041656	-0.003052	-0.018158
2.277	0.006409	-0.008087	0.12283	0.010529	0.027771	0.16281	0.040436	0.018768	-0.25986	-0.01297	-0.009155	-0.014343	-0.029755	-0.16312	0.026093	0.005188	-0.035706	0.051422	-0.22507	-0.018311	-0.034637	-0.082092	0.12848	-0.002899	0.030365	-0.012665	-0.15915	-0.002594	-0.019073	-0.09552	-0.001068	-0.014343
2.278	-0.004272	-0.004578	0.027313	0.008087	0.019836	0.31952	0.00946	0.030823	-0.11368	-0.22781	-0.016327	-0.018768	-0.012512	-0.2536	0.00412	0.009918	-0.037384	0.11734	-0.11917	0.066223	-0.011292	-0.077362	0.1294	0.049591	0.009613	-0.006866	-0.009308	-0.003815	0.066833	-0.14618	-0.001373	-0.019531
2.279	-0.006256	-0.007935	0.035553	0.01297	-0.010071	0.39063	-0.049744	0.023651	-0.033875	-0.16281	-0.015564	-0.011139	0.015411	-0.0737	0.018616	0.001678	-0.020142	0.085144	0.13947	0.16144	-0.001373	-0.057526	0.15137	0.068359	0.016174	-0.00412	0.19012	-0.004425	-0.029602	-0.13245	-0.00061	-0.019836
2.28	-0.0177	-0.03006	0.047302	0.01297	-0.012512	0.38681	-0.059662	0.024261	0.12451	-0.13672	-0.005493	-0.02243	-0.058594	-0.045624	-0.000458	-0.006256	-0.037994	0.090027	0.11978	0.17807	-0.00351	-0.067139	0.15091	0.034027	0.018158	-0.005493	0.44968	-0.002289	-0.10498	-0.12253	-0.001831	-0.016937
2.281	-0.023193	-0.033722	0.07309	0.016479	0.002594	0.33722	-0.081482	-0.003052	0.11612	-0.056152	0	-0.012512	-0.087738	-0.083008	-0.046692	-0.00061	0.014496	0.1358	0.27023	0.12146	-0.006866	-0.077515	0.2002	0.037537	0.013275	0.003815	0.073242	-0.007477	-0.087891	-0.096283	-0.003662	-0.014496
2.282	-0.021973	-0.037079	0.056152	0.007019	0.007477	0.11932	0.006256	-0.018158	0.060577	-0.031281	0.001221	-0.004425	-0.23895	0.052948	-0.038757	0.003052	0.040588	0.11917	-0.17425	0.13702	-0.016022	-0.087585	0.17792	-0.020752	-0.006256	-0.00885	0.14847	-0.001221	-0.12589	-0.10864	-0.001526	-0.012665
2.283	-0.016937	-0.058594	0.00824	-0.000305	0.007172	0.019836	0.049438	-0.021515	-0.14755	-0.010376	-0.012512	-0.013123	-0.032349	0.12604	-0.014496	0.003204	0.064697	0.0914	-0.25772	0.081787	-0.018463	-0.091858	0.18402	-0.007629	-0.002441	-0.009003	0.22781	-0.006409	-0.14114	-0.10773	-0.00412	-0.011597
2.284	-0.024414	-0.039825	0.006104	-0.006104	-0.045013	0.059814	0.065308	-0.011292	-0.12741	-0.033722	-0.037842	-0.006714	0.94391	0.055237	0.033722	0.016632	0.042877	0.12039	0.015411	0.024414	-0.007935	-0.086823	0.16159	-0.021515	0.01709	-0.010376	0.14267	-0.005188	-0.05722	-0.088654	-0.001831	-0.009613
2.285	-0.036469	0.010681	-0.032349	0.003967	-0.078583	-0.4248	0.030365	-0.004272	-0.042725	-0.030212	-0.036926	-0.000458	0.81146	0.031738	-0.01236	0.002136	0.036774	0.12634	-0.058289	-0.009766	-0.010529	-0.097504	0.14282	-0.006256	0.019531	-0.010223	0.215	-0.01358	0.037537	-0.082855	-0.003052	-0.010376
2.286	-0.031281	0.012054	-0.082397	0.018921	-0.027008	-0.62653	-0.013428	0.003357	0.000153	0.004578	-0.029449	-0.010529	-0.48996	0.12085	-0.051422	0.010834	0.004425	0.12161	0.14404	-0.07782	0.001068	-0.08667	0.14496	0.022736	0.021515	-0.001678	-0.098267	-0.012054	0.16846	0.00061	-0.003204	-0.012054
2.287	-0.015259	0.010986	-0.089722	0.017242	0.036316	-0.50262	0.025787	-0.002289	-0.013885	0.034637	-0.051422	-0.009918	-0.383	0.098724	-0.072021	0.017853	-0.021667	0.10986	0.053711	-0.087738	0.001831	-0.068817	0.1239	0.058746	0.024872	-0.003357	-0.48614	-0.012512	0.15518	0.1149	-0.002289	-0.007782
2.288	0.011597	0.034027	-0.000458	-0.011444	0.051575	-0.551	0.023346	-0.017395	0.029144	0.023499	-0.008545	-0.010376	-0.19623	0.090179	0.067902	0.011902	-0.052948	0.099487	0.10986	-0.14053	0.010376	-0.067749	0.11353	0.011597	0.023499	-0.001221	-0.36072	-0.01236	0.018921	0.14053	-0.004883	-0.009308
2.289	0.03418	0.004578	-0.05722	0.018616	-0.021057	-0.52765	-0.009003	-0.016174	0.029144	0.022583	-0.029297	-0.012665	-0.20248	0.12054	0.15503	0.011292	-0.088043	0.069122	0.34363	-0.22629	-0.013123	-0.073853	0.11688	0.002899	0.041809	-0.010529	-0.13306	-0.010529	-0.051727	0.048676	-0.007477	-0.005646
2.29	0.047455	0.032959	-0.065002	0.004883	-0.028992	-0.33585	-0.00473	-0.006561	-0.074768	0.021515	-0.087433	-0.007172	-0.15182	0.14175	0.14099	0.000916	-0.031586	0.062256	0.12726	-0.17395	-0.006714	-0.062256	0.11337	0.020599	0.029602	-0.010376	-0.057831	-0.002136	-0.10941	0.009155	-0.000305	-0.013885
2.291	0.051117	0.030823	-0.065765	0.00885	0.12161	-0.30151	-0.01297	-0.009308	-0.058899	0.018158	0.000305	-0.014496	-0.1622	0.070801	0.10895	-0.003662	-0.018005	0.019531	-0.042114	-0.079956	-0.022125	-0.083008	0.09552	0.026093	0.036163	-0.001678	-0.024109	-0.003052	-0.068817	-0.06012	0.003052	-0.007324
2.292	0.038605	0.048523	-0.15717	-0.005646	0.097809	-0.19928	-0.003815	-0.011292	-0.039978	0.020447	0.063171	-0.010986	0.23346	0.076752	-0.023193	-0.009766	-0.005951	0.007782	-0.016785	0.050659	-0.022888	-0.062408	0.09079	0.054321	0.035553	-0.002136	0.12894	-0.003815	-0.011139	-0.040894	-0.003204	-0.015564
